<mxfile host="app.diagrams.net" agent="Mozilla/5.0 (Windows NT 10.0; Win64; x64) AppleWebKit/537.36 (KHTML, like Gecko) Chrome/140.0.0.0 Safari/537.36" version="28.2.0">
  <diagram name="第 1 页" id="9VGPSpeqh24C_aLK6Sts">
    <mxGraphModel dx="925" dy="554" grid="1" gridSize="10" guides="1" tooltips="1" connect="1" arrows="1" fold="1" page="1" pageScale="1" pageWidth="827" pageHeight="1169" math="0" shadow="0">
      <root>
        <mxCell id="0" />
        <mxCell id="1" parent="0" />
        <mxCell id="Git7J_nrqn_lnPFwCl84-48" value="" style="rounded=1;whiteSpace=wrap;html=1;fontFamily=Comic Sans MS;fontStyle=1;fillColor=#e1d5e7;strokeColor=#9673a6;sketch=1;curveFitting=1;jiggle=2;opacity=20;" vertex="1" parent="1">
          <mxGeometry x="562" y="60" width="258" height="270" as="geometry" />
        </mxCell>
        <mxCell id="Git7J_nrqn_lnPFwCl84-47" value="" style="rounded=1;whiteSpace=wrap;html=1;fontFamily=Comic Sans MS;fontStyle=1;fillColor=#dae8fc;strokeColor=#6c8ebf;sketch=1;curveFitting=1;jiggle=2;opacity=20;" vertex="1" parent="1">
          <mxGeometry x="424" y="60" width="120" height="270" as="geometry" />
        </mxCell>
        <mxCell id="Git7J_nrqn_lnPFwCl84-46" value="" style="rounded=1;whiteSpace=wrap;html=1;fontFamily=Comic Sans MS;fontStyle=0;fillColor=#ffe6cc;strokeColor=#d79b00;sketch=1;curveFitting=1;jiggle=2;opacity=20;" vertex="1" parent="1">
          <mxGeometry x="2" y="60" width="400" height="270" as="geometry" />
        </mxCell>
        <mxCell id="Git7J_nrqn_lnPFwCl84-3" value="Parametric RAG&lt;div&gt;25&#39;sigir&lt;/div&gt;" style="rounded=1;whiteSpace=wrap;html=1;fontFamily=Comic Sans MS;fontStyle=1;fillColor=#ffe6cc;strokeColor=#d79b00;sketch=1;curveFitting=1;jiggle=2;" vertex="1" parent="1">
          <mxGeometry x="92" y="120" width="100" height="40" as="geometry" />
        </mxCell>
        <mxCell id="Git7J_nrqn_lnPFwCl84-7" style="edgeStyle=orthogonalEdgeStyle;rounded=0;orthogonalLoop=1;jettySize=auto;html=1;sketch=1;curveFitting=1;jiggle=2;curved=1;exitX=1;exitY=0.5;exitDx=0;exitDy=0;" edge="1" parent="1" source="Git7J_nrqn_lnPFwCl84-6" target="Git7J_nrqn_lnPFwCl84-3">
          <mxGeometry relative="1" as="geometry" />
        </mxCell>
        <mxCell id="Git7J_nrqn_lnPFwCl84-8" value="locality" style="edgeLabel;html=1;align=center;verticalAlign=middle;resizable=0;points=[];fontFamily=Comic Sans MS;labelBackgroundColor=none;fontSize=13;" vertex="1" connectable="0" parent="Git7J_nrqn_lnPFwCl84-7">
          <mxGeometry x="0.2253" relative="1" as="geometry">
            <mxPoint x="-50" y="30" as="offset" />
          </mxGeometry>
        </mxCell>
        <mxCell id="Git7J_nrqn_lnPFwCl84-6" value="KDE&lt;div&gt;25&#39;ACL&lt;/div&gt;" style="rounded=1;whiteSpace=wrap;html=1;fontFamily=Comic Sans MS;fontStyle=0;fillColor=#ffe6cc;strokeColor=#d79b00;sketch=1;curveFitting=1;jiggle=2;" vertex="1" parent="1">
          <mxGeometry x="12" y="270" width="80" height="40" as="geometry" />
        </mxCell>
        <mxCell id="Git7J_nrqn_lnPFwCl84-10" style="edgeStyle=orthogonalEdgeStyle;rounded=0;orthogonalLoop=1;jettySize=auto;html=1;sketch=1;curveFitting=1;jiggle=2;curved=1;" edge="1" parent="1" source="Git7J_nrqn_lnPFwCl84-9">
          <mxGeometry relative="1" as="geometry">
            <mxPoint x="142" y="160" as="targetPoint" />
          </mxGeometry>
        </mxCell>
        <mxCell id="Git7J_nrqn_lnPFwCl84-11" value="life long editing&lt;div&gt;retrieve&lt;/div&gt;" style="edgeLabel;html=1;align=center;verticalAlign=middle;resizable=0;points=[];labelBackgroundColor=none;fontFamily=Comic Sans MS;fontSize=13;" vertex="1" connectable="0" parent="Git7J_nrqn_lnPFwCl84-10">
          <mxGeometry x="-0.7214" y="-1" relative="1" as="geometry">
            <mxPoint x="-24" y="-41" as="offset" />
          </mxGeometry>
        </mxCell>
        <mxCell id="Git7J_nrqn_lnPFwCl84-9" value="PER-PCS&lt;div&gt;24&#39;EMNLP&lt;/div&gt;" style="rounded=1;whiteSpace=wrap;html=1;fontFamily=Comic Sans MS;fontStyle=0;fillColor=#ffe6cc;strokeColor=#d79b00;sketch=1;curveFitting=1;jiggle=2;" vertex="1" parent="1">
          <mxGeometry x="12" y="200" width="80" height="40" as="geometry" />
        </mxCell>
        <mxCell id="Git7J_nrqn_lnPFwCl84-13" style="edgeStyle=orthogonalEdgeStyle;rounded=0;orthogonalLoop=1;jettySize=auto;html=1;sketch=1;curveFitting=1;jiggle=2;curved=1;exitX=0;exitY=0.5;exitDx=0;exitDy=0;" edge="1" parent="1" source="Git7J_nrqn_lnPFwCl84-12">
          <mxGeometry relative="1" as="geometry">
            <mxPoint x="142" y="160" as="targetPoint" />
          </mxGeometry>
        </mxCell>
        <mxCell id="Git7J_nrqn_lnPFwCl84-15" value="life long editing" style="edgeLabel;html=1;align=center;verticalAlign=middle;resizable=0;points=[];labelBackgroundColor=none;fontFamily=Comic Sans MS;fontSize=13;" vertex="1" connectable="0" parent="Git7J_nrqn_lnPFwCl84-13">
          <mxGeometry x="-0.0394" y="3" relative="1" as="geometry">
            <mxPoint x="58" y="-25" as="offset" />
          </mxGeometry>
        </mxCell>
        <mxCell id="Git7J_nrqn_lnPFwCl84-12" value="PRUNE&lt;div&gt;25&#39;ICLR&lt;/div&gt;" style="rounded=1;whiteSpace=wrap;html=1;fontFamily=Comic Sans MS;fontStyle=0;fillColor=#ffe6cc;strokeColor=#d79b00;sketch=1;curveFitting=1;jiggle=2;" vertex="1" parent="1">
          <mxGeometry x="182" y="200" width="80" height="40" as="geometry" />
        </mxCell>
        <mxCell id="Git7J_nrqn_lnPFwCl84-18" style="edgeStyle=orthogonalEdgeStyle;rounded=0;orthogonalLoop=1;jettySize=auto;html=1;sketch=1;curveFitting=1;jiggle=2;curved=1;exitX=0;exitY=0.5;exitDx=0;exitDy=0;" edge="1" parent="1" source="Git7J_nrqn_lnPFwCl84-16" target="Git7J_nrqn_lnPFwCl84-3">
          <mxGeometry relative="1" as="geometry" />
        </mxCell>
        <mxCell id="Git7J_nrqn_lnPFwCl84-19" value="loss" style="edgeLabel;html=1;align=center;verticalAlign=middle;resizable=0;points=[];labelBackgroundColor=none;fontFamily=Comic Sans MS;fontSize=13;" vertex="1" connectable="0" parent="Git7J_nrqn_lnPFwCl84-18">
          <mxGeometry x="-0.4963" y="-1" relative="1" as="geometry">
            <mxPoint x="29" y="-37" as="offset" />
          </mxGeometry>
        </mxCell>
        <mxCell id="Git7J_nrqn_lnPFwCl84-16" value="ICE&lt;div&gt;25&#39;ICLR&lt;/div&gt;" style="rounded=1;whiteSpace=wrap;html=1;fontFamily=Comic Sans MS;fontStyle=0;fillColor=#ffe6cc;strokeColor=#d79b00;sketch=1;curveFitting=1;jiggle=2;" vertex="1" parent="1">
          <mxGeometry x="182" y="270" width="80" height="40" as="geometry" />
        </mxCell>
        <mxCell id="Git7J_nrqn_lnPFwCl84-20" value="&lt;div data-docx-has-block-data=&quot;false&quot; data-lark-html-role=&quot;root&quot; data-page-id=&quot;Uk5WdttfZob3iwxAFe7c8gIhnXc&quot;&gt;&lt;div class=&quot;old-record-id-IjckdyiqwopCnuxsjYIcSogonfE&quot;&gt;User Embedding Model&lt;/div&gt;&lt;/div&gt;&lt;span class=&quot;lark-record-clipboard&quot; data-lark-record-format=&quot;docx/text&quot; data-lark-record-data=&quot;{&amp;quot;rootId&amp;quot;:&amp;quot;Uk5WdttfZob3iwxAFe7c8gIhnXc&amp;quot;,&amp;quot;text&amp;quot;:{&amp;quot;initialAttributedTexts&amp;quot;:{&amp;quot;text&amp;quot;:{&amp;quot;0&amp;quot;:&amp;quot;User Embedding Model&amp;quot;},&amp;quot;attribs&amp;quot;:{&amp;quot;0&amp;quot;:&amp;quot;*0+k&amp;quot;}},&amp;quot;apool&amp;quot;:{&amp;quot;numToAttrib&amp;quot;:{&amp;quot;0&amp;quot;:[&amp;quot;author&amp;quot;,&amp;quot;7543449489537794050&amp;quot;]},&amp;quot;nextNum&amp;quot;:1}},&amp;quot;type&amp;quot;:&amp;quot;text&amp;quot;,&amp;quot;referenceRecordMap&amp;quot;:{},&amp;quot;extra&amp;quot;:{&amp;quot;channel&amp;quot;:&amp;quot;saas&amp;quot;,&amp;quot;isEqualBlockSelection&amp;quot;:false,&amp;quot;pasteRandomId&amp;quot;:&amp;quot;1dd85344-e42c-4f9a-acf1-bb07eb799704&amp;quot;,&amp;quot;mention_page_title&amp;quot;:{},&amp;quot;external_mention_url&amp;quot;:{}},&amp;quot;isKeepQuoteContainer&amp;quot;:false,&amp;quot;isFromCode&amp;quot;:false,&amp;quot;selection&amp;quot;:[{&amp;quot;id&amp;quot;:44,&amp;quot;type&amp;quot;:&amp;quot;text&amp;quot;,&amp;quot;selection&amp;quot;:{&amp;quot;start&amp;quot;:20,&amp;quot;end&amp;quot;:40},&amp;quot;recordId&amp;quot;:&amp;quot;IjckdyiqwopCnuxsjYIcSogonfE&amp;quot;}],&amp;quot;payloadMap&amp;quot;:{},&amp;quot;isCut&amp;quot;:false}&quot;&gt;&lt;/span&gt;&lt;div&gt;24&#39;ACL Workshop&lt;/div&gt;" style="rounded=1;whiteSpace=wrap;html=1;fontFamily=Comic Sans MS;fontStyle=1;fillColor=#ffe6cc;strokeColor=#d79b00;sketch=1;curveFitting=1;jiggle=2;" vertex="1" parent="1">
          <mxGeometry x="252" y="120" width="140" height="40" as="geometry" />
        </mxCell>
        <mxCell id="Git7J_nrqn_lnPFwCl84-21" value="&lt;div data-docx-has-block-data=&quot;false&quot; data-lark-html-role=&quot;root&quot; data-page-id=&quot;Uk5WdttfZob3iwxAFe7c8gIhnXc&quot;&gt;&lt;div class=&quot;old-record-id-IjckdyiqwopCnuxsjYIcSogonfE&quot;&gt;GRACE&lt;/div&gt;&lt;/div&gt;&lt;span class=&quot;lark-record-clipboard&quot; data-lark-record-format=&quot;docx/text&quot; data-lark-record-data=&quot;{&amp;quot;rootId&amp;quot;:&amp;quot;Uk5WdttfZob3iwxAFe7c8gIhnXc&amp;quot;,&amp;quot;text&amp;quot;:{&amp;quot;initialAttributedTexts&amp;quot;:{&amp;quot;text&amp;quot;:{&amp;quot;0&amp;quot;:&amp;quot;User Embedding Model&amp;quot;},&amp;quot;attribs&amp;quot;:{&amp;quot;0&amp;quot;:&amp;quot;*0+k&amp;quot;}},&amp;quot;apool&amp;quot;:{&amp;quot;numToAttrib&amp;quot;:{&amp;quot;0&amp;quot;:[&amp;quot;author&amp;quot;,&amp;quot;7543449489537794050&amp;quot;]},&amp;quot;nextNum&amp;quot;:1}},&amp;quot;type&amp;quot;:&amp;quot;text&amp;quot;,&amp;quot;referenceRecordMap&amp;quot;:{},&amp;quot;extra&amp;quot;:{&amp;quot;channel&amp;quot;:&amp;quot;saas&amp;quot;,&amp;quot;isEqualBlockSelection&amp;quot;:false,&amp;quot;pasteRandomId&amp;quot;:&amp;quot;1dd85344-e42c-4f9a-acf1-bb07eb799704&amp;quot;,&amp;quot;mention_page_title&amp;quot;:{},&amp;quot;external_mention_url&amp;quot;:{}},&amp;quot;isKeepQuoteContainer&amp;quot;:false,&amp;quot;isFromCode&amp;quot;:false,&amp;quot;selection&amp;quot;:[{&amp;quot;id&amp;quot;:44,&amp;quot;type&amp;quot;:&amp;quot;text&amp;quot;,&amp;quot;selection&amp;quot;:{&amp;quot;start&amp;quot;:20,&amp;quot;end&amp;quot;:40},&amp;quot;recordId&amp;quot;:&amp;quot;IjckdyiqwopCnuxsjYIcSogonfE&amp;quot;}],&amp;quot;payloadMap&amp;quot;:{},&amp;quot;isCut&amp;quot;:false}&quot;&gt;&lt;/span&gt;&lt;div&gt;23&#39;NIPS&lt;/div&gt;" style="rounded=1;whiteSpace=wrap;html=1;fontFamily=Comic Sans MS;fontStyle=1;fillColor=#ffe6cc;strokeColor=#d79b00;sketch=1;curveFitting=1;jiggle=2;" vertex="1" parent="1">
          <mxGeometry x="299" y="230" width="80" height="40" as="geometry" />
        </mxCell>
        <mxCell id="Git7J_nrqn_lnPFwCl84-22" value="LoRA" style="text;html=1;align=center;verticalAlign=middle;whiteSpace=wrap;rounded=0;fontFamily=Comic Sans MS;fontSize=19;" vertex="1" parent="1">
          <mxGeometry x="112" y="70" width="60" height="30" as="geometry" />
        </mxCell>
        <mxCell id="Git7J_nrqn_lnPFwCl84-24" value="prompt-tuning" style="text;html=1;align=center;verticalAlign=middle;whiteSpace=wrap;rounded=0;fontFamily=Comic Sans MS;fontSize=19;" vertex="1" parent="1">
          <mxGeometry x="252" y="70" width="130" height="30" as="geometry" />
        </mxCell>
        <mxCell id="Git7J_nrqn_lnPFwCl84-25" value="adapter" style="text;html=1;align=center;verticalAlign=middle;whiteSpace=wrap;rounded=0;fontFamily=Comic Sans MS;fontSize=19;" vertex="1" parent="1">
          <mxGeometry x="289" y="190" width="100" height="30" as="geometry" />
        </mxCell>
        <mxCell id="Git7J_nrqn_lnPFwCl84-26" value="DecoupledRAG&lt;br&gt;&lt;div&gt;25&#39;WWW&lt;/div&gt;" style="rounded=1;whiteSpace=wrap;html=1;fontFamily=Comic Sans MS;fontStyle=1;fillColor=#dae8fc;strokeColor=#6c8ebf;sketch=1;curveFitting=1;jiggle=2;" vertex="1" parent="1">
          <mxGeometry x="434" y="120" width="100" height="40" as="geometry" />
        </mxCell>
        <mxCell id="Git7J_nrqn_lnPFwCl84-27" value="MemoRAG&lt;br&gt;&lt;div&gt;25&#39;WWW&lt;/div&gt;" style="rounded=1;whiteSpace=wrap;html=1;fontFamily=Comic Sans MS;fontStyle=1;fillColor=#dae8fc;strokeColor=#6c8ebf;sketch=1;curveFitting=1;jiggle=2;" vertex="1" parent="1">
          <mxGeometry x="434" y="210" width="100" height="40" as="geometry" />
        </mxCell>
        <mxCell id="Git7J_nrqn_lnPFwCl84-28" value="PEFT" style="text;html=1;align=center;verticalAlign=middle;whiteSpace=wrap;rounded=0;fontFamily=Comic Sans MS;fontSize=19;" vertex="1" parent="1">
          <mxGeometry x="172" y="20" width="60" height="30" as="geometry" />
        </mxCell>
        <mxCell id="Git7J_nrqn_lnPFwCl84-29" value="KV" style="text;html=1;align=center;verticalAlign=middle;whiteSpace=wrap;rounded=0;fontFamily=Comic Sans MS;fontSize=19;" vertex="1" parent="1">
          <mxGeometry x="454" y="20" width="60" height="30" as="geometry" />
        </mxCell>
        <mxCell id="Git7J_nrqn_lnPFwCl84-31" value="ROME&lt;br&gt;&lt;div&gt;22&#39;NIPS&lt;/div&gt;" style="rounded=1;whiteSpace=wrap;html=1;fontFamily=Comic Sans MS;fontStyle=1;fillColor=#e1d5e7;strokeColor=#9673a6;sketch=1;curveFitting=1;jiggle=2;" vertex="1" parent="1">
          <mxGeometry x="572" y="190" width="100" height="40" as="geometry" />
        </mxCell>
        <mxCell id="Git7J_nrqn_lnPFwCl84-34" style="edgeStyle=orthogonalEdgeStyle;rounded=0;orthogonalLoop=1;jettySize=auto;html=1;sketch=1;curveFitting=1;jiggle=2;" edge="1" parent="1" source="Git7J_nrqn_lnPFwCl84-33" target="Git7J_nrqn_lnPFwCl84-31">
          <mxGeometry relative="1" as="geometry" />
        </mxCell>
        <mxCell id="Git7J_nrqn_lnPFwCl84-35" value="locality" style="edgeLabel;html=1;align=center;verticalAlign=middle;resizable=0;points=[];labelBackgroundColor=none;fontFamily=Comic Sans MS;fontSize=13;" vertex="1" connectable="0" parent="Git7J_nrqn_lnPFwCl84-34">
          <mxGeometry x="-0.5589" y="2" relative="1" as="geometry">
            <mxPoint x="-4" y="-12" as="offset" />
          </mxGeometry>
        </mxCell>
        <mxCell id="Git7J_nrqn_lnPFwCl84-33" value="AlphaEdit&lt;br&gt;&lt;div&gt;25&#39;ICLR&lt;/div&gt;" style="rounded=1;whiteSpace=wrap;html=1;fontFamily=Comic Sans MS;fontStyle=0;fillColor=#e1d5e7;strokeColor=#9673a6;sketch=1;curveFitting=1;jiggle=2;" vertex="1" parent="1">
          <mxGeometry x="690" y="110" width="100" height="40" as="geometry" />
        </mxCell>
        <mxCell id="Git7J_nrqn_lnPFwCl84-36" value="Fine&lt;br&gt;&lt;div&gt;25&#39;ICLR&lt;/div&gt;" style="rounded=1;whiteSpace=wrap;html=1;fontFamily=Comic Sans MS;fontStyle=0;fillColor=#e1d5e7;strokeColor=#9673a6;sketch=1;curveFitting=1;jiggle=2;" vertex="1" parent="1">
          <mxGeometry x="700" y="190" width="100" height="40" as="geometry" />
        </mxCell>
        <mxCell id="Git7J_nrqn_lnPFwCl84-37" style="edgeStyle=orthogonalEdgeStyle;rounded=0;orthogonalLoop=1;jettySize=auto;html=1;entryX=1;entryY=0.5;entryDx=0;entryDy=0;sketch=1;curveFitting=1;jiggle=2;" edge="1" parent="1" source="Git7J_nrqn_lnPFwCl84-36" target="Git7J_nrqn_lnPFwCl84-31">
          <mxGeometry relative="1" as="geometry">
            <mxPoint x="832" y="170" as="sourcePoint" />
            <mxPoint x="752" y="200" as="targetPoint" />
          </mxGeometry>
        </mxCell>
        <mxCell id="Git7J_nrqn_lnPFwCl84-38" value="locality" style="edgeLabel;html=1;align=center;verticalAlign=middle;resizable=0;points=[];labelBackgroundColor=none;fontFamily=Comic Sans MS;fontSize=13;" vertex="1" connectable="0" parent="Git7J_nrqn_lnPFwCl84-37">
          <mxGeometry x="-0.5589" y="2" relative="1" as="geometry">
            <mxPoint x="-19" y="-42" as="offset" />
          </mxGeometry>
        </mxCell>
        <mxCell id="Git7J_nrqn_lnPFwCl84-40" style="edgeStyle=orthogonalEdgeStyle;rounded=0;orthogonalLoop=1;jettySize=auto;html=1;entryX=0.5;entryY=1;entryDx=0;entryDy=0;sketch=1;curveFitting=1;jiggle=2;" edge="1" parent="1" source="Git7J_nrqn_lnPFwCl84-39" target="Git7J_nrqn_lnPFwCl84-31">
          <mxGeometry relative="1" as="geometry" />
        </mxCell>
        <mxCell id="Git7J_nrqn_lnPFwCl84-41" value="format" style="edgeLabel;html=1;align=center;verticalAlign=middle;resizable=0;points=[];labelBackgroundColor=none;fontFamily=Comic Sans MS;fontSize=13;" vertex="1" connectable="0" parent="Git7J_nrqn_lnPFwCl84-40">
          <mxGeometry x="-0.5469" y="4" relative="1" as="geometry">
            <mxPoint x="-2" y="-14" as="offset" />
          </mxGeometry>
        </mxCell>
        <mxCell id="Git7J_nrqn_lnPFwCl84-39" value="AnyEdit&lt;br&gt;&lt;div&gt;25&#39;ICML&lt;/div&gt;" style="rounded=1;whiteSpace=wrap;html=1;fontFamily=Comic Sans MS;fontStyle=0;fillColor=#e1d5e7;strokeColor=#9673a6;sketch=1;curveFitting=1;jiggle=2;" vertex="1" parent="1">
          <mxGeometry x="700" y="270" width="100" height="40" as="geometry" />
        </mxCell>
        <mxCell id="Git7J_nrqn_lnPFwCl84-43" value="locate then edit" style="text;html=1;align=center;verticalAlign=middle;whiteSpace=wrap;rounded=0;fontFamily=Comic Sans MS;fontSize=19;" vertex="1" parent="1">
          <mxGeometry x="611" y="20" width="160" height="30" as="geometry" />
        </mxCell>
      </root>
    </mxGraphModel>
  </diagram>
</mxfile>
